<?xml version="1.0" encoding="UTF-8" standalone="no"?>
<!-- Created with Inkscape (http://www.inkscape.org/) -->

<svg
   version="1.1"
   id="svg1"
   width="500"
   height="500"
   viewBox="0 0 500 500"
   sodipodi:docname="ADMS.svg"
   inkscape:version="1.4.2 (f4327f4, 2025-05-13)"
   xmlns:inkscape="http://www.inkscape.org/namespaces/inkscape"
   xmlns:sodipodi="http://sodipodi.sourceforge.net/DTD/sodipodi-0.dtd"
   xmlns="http://www.w3.org/2000/svg"
   xmlns:svg="http://www.w3.org/2000/svg">
  <defs
     id="defs1" />
  <sodipodi:namedview
     id="namedview1"
     pagecolor="#ffffff"
     bordercolor="#000000"
     borderopacity="0.25"
     inkscape:showpageshadow="2"
     inkscape:pageopacity="0.0"
     inkscape:pagecheckerboard="0"
     inkscape:deskcolor="#d1d1d1"
     inkscape:zoom="1.6263021"
     inkscape:cx="301.29704"
     inkscape:cy="366.16813"
     inkscape:window-width="2560"
     inkscape:window-height="1530"
     inkscape:window-x="-11"
     inkscape:window-y="-11"
     inkscape:window-maximized="1"
     inkscape:current-layer="g1" />
  <g
     inkscape:groupmode="layer"
     inkscape:label="Image"
     id="g1">
    <path
       style="fill:#000000;stroke-width:0.702015"
       d="m 117.90249,448.67489 c -12.55008,-0.34298 -14.04579,-0.5151 -15.79997,-1.81788 -3.0358,-2.25461 -4.680981,-6.14051 -5.055783,-11.94174 -0.550077,-8.51413 2.483429,-13.86716 8.854433,-15.62473 1.54717,-0.4268 11.76925,-0.72423 24.97031,-0.72654 l 22.35082,-0.007 -9.31998,-4.76097 C 116.32186,399.70701 94.415615,381.54346 76.196615,357.6579 57.403582,333.01979 47.482698,307.38278 44.016533,274.49989 c -1.192828,-11.3162 -0.482753,-35.27526 1.36044,-45.90303 4.568799,-26.34351 13.920151,-47.57353 30.713691,-69.72811 10.452197,-13.78887 24.585766,-27.63391 27.617716,-27.05392 1.45238,0.27784 2.32875,3.01205 4.82829,15.0639 l 1.78739,8.61813 -6.53664,7.39073 c -12.24444,13.84431 -19.495117,25.23458 -25.944941,40.75755 -6.620689,15.9342 -9.697148,30.489 -10.302314,48.74047 -1.022103,30.82595 6.716047,59.94418 21.940514,82.56095 28.526801,42.38117 76.983841,70.71764 132.795621,77.65864 36.18535,4.5002 73.31851,-1.00127 106.63083,-15.79785 8.91339,-3.95912 23.62211,-12.27335 24.15552,-13.6541 0.47753,-1.23613 -2.1427,-13.02522 -4.40165,-19.80419 -2.3134,-6.94233 -8.4774,-19.39613 -12.75278,-25.7658 -5.62559,-8.3813 -10.60934,-13.69353 -36.54364,-38.95232 -25.71684,-25.04699 -30.00162,-29.81509 -33.6956,-37.49639 -2.0383,-4.23846 -2.18709,-5.07373 -2.18709,-12.27806 0,-7.57524 0.0552,-7.84174 2.75574,-13.29371 2.62226,-5.29403 4.17629,-6.98684 32.08425,-34.9496 16.13068,-16.16236 31.09153,-31.74749 33.24635,-34.63362 16.33763,-21.88251 23.33703,-42.76587 24.3299,-72.590656 l 0.42508,-12.768961 H 248.34874 140.37427 l 0.3854,13.46863 c 0.4463,15.596637 2.0268,25.873807 5.68502,36.966847 4.00257,12.13724 11.61889,26.04087 19.70612,35.97364 1.56659,1.92409 15.41116,16.09239 30.76572,31.48511 16.52099,16.56205 29.02083,29.67196 30.62047,32.11493 8.29209,12.66373 7.89974,24.70773 -1.24446,38.20181 -1.17346,1.73168 -14.71743,15.74255 -30.09771,31.13527 -31.54954,31.57507 -36.45391,37.5065 -43.23691,52.2915 -2.66938,5.81849 -6.75349,17.99348 -6.75349,20.13262 0,0.76503 -0.21244,1.39097 -0.47209,1.39097 -1.19675,0 -15.02403,-9.31987 -15.02403,-10.1265 0,-1.77283 3.60124,-13.22466 5.7022,-18.13284 3.03522,-7.09073 7.81844,-15.13627 13.56482,-22.8165 3.23839,-4.32823 14.70884,-16.40954 32.88243,-34.63362 17.18162,-17.22936 28.69977,-29.33144 29.96594,-31.48511 1.71214,-2.91222 2.05274,-4.26031 2.03299,-8.04619 -0.0153,-2.93471 -0.46821,-5.41647 -1.27683,-6.99669 -0.68921,-1.34687 -13.8512,-14.88546 -29.24887,-30.08577 -15.39767,-15.20031 -29.65631,-29.63905 -31.68585,-32.08609 -12.58913,-15.17876 -22.96983,-36.11498 -27.10818,-54.67287 -2.40453,-10.78277 -3.28108,-19.46714 -3.28108,-32.507033 V 81.319612 h -5.53881 c -7.43742,0 -12.5272,-1.045669 -15.29427,-3.142136 -3.195731,-2.42124 -4.805355,-7.47693 -4.357968,-13.688025 0.446218,-6.194904 2.242979,-9.613172 6.232048,-11.85627 l 3.1107,-1.749173 h 141.93038 141.93037 l 3.04469,1.614382 c 7.93441,4.207047 8.91204,20.875704 1.53371,26.149858 -2.34187,1.674021 -8.03172,2.671364 -15.24007,2.671364 h -5.891 v 8.92507 c 0,15.998918 -3.00895,34.863008 -7.88429,49.429218 -4.33961,12.96555 -12.93433,28.68171 -21.56302,39.42973 -2.72869,3.39889 -17.17681,18.07549 -32.10694,32.61466 -30.64598,29.8435 -31.22862,30.57445 -30.52392,38.29417 0.2629,2.87993 0.9796,5.14748 2.25848,7.14562 1.03036,1.60983 14.17078,15.04873 29.20094,29.86422 28.06691,27.66607 32.56128,32.48161 38.20069,40.93064 6.78109,10.1595 14.18624,26.99284 16.7746,38.13197 0.49181,2.1165 1.12274,4.2755 1.40208,4.79777 1.19128,2.22741 18.39604,-15.2069 27.88311,-28.25512 5.4053,-7.43428 14.73707,-25.78647 18.17644,-35.74642 5.27439,-15.27393 7.78634,-30.87958 7.70141,-47.8456 -0.0629,-12.56677 -1.2764,-22.31586 -4.0664,-32.66879 -1.81004,-6.71656 -5.752,-17.47519 -6.58296,-17.96659 -0.26516,-0.1568 -5.07282,1.89618 -10.68368,4.56218 -15.09738,7.17351 -15.46996,6.89073 -11.81326,-8.96601 2.93365,-12.72131 7.07732,-33.57342 8.36275,-42.08363 0.62719,-4.15238 1.22443,-5.99993 2.08791,-6.45896 0.90763,-0.48251 7.64262,2.1412 26.98967,10.5142 29.27997,12.67177 28.29196,12.20472 28.84479,13.63573 0.78573,2.03392 -0.43192,3.17286 -10.23085,9.56958 -7.1523,4.66901 -9.74718,6.72759 -9.49545,7.533 0.19051,0.60953 1.61219,4.72904 3.15928,9.15444 6.00128,17.16645 8.23025,32.33653 8.17292,55.62369 -0.0368,14.94419 -0.27634,18.8104 -1.64477,26.54585 -2.7308,15.43656 -7.03714,28.28824 -14.55866,43.44835 -8.03425,16.19354 -18.74417,31.00924 -32.99727,45.64716 -14.42518,14.81465 -26.97829,24.23614 -49.32831,37.02237 l -7.71204,4.41198 h 22.72016 c 25.17482,0 27.85192,0.32646 31.37546,3.82649 4.20092,4.17289 5.37284,14.08706 2.35796,19.94798 -2.94975,5.73421 -3.49053,5.90066 -20.82871,6.4103 -18.18158,0.5344 -239.53316,0.47472 -259.46129,-0.07 z m 113.17842,-47.34998 c -9.10216,-0.95287 -20.04495,-2.64899 -27.11821,-4.20329 -14.72151,-3.23496 -35.21845,-10.8465 -35.21845,-13.07838 0,-1.7804 5.97644,-9.15082 11.1536,-13.75511 6.07747,-5.405 13.6582,-10.83916 25.03184,-17.94381 15.69633,-9.80488 20.36374,-13.05867 25.10484,-17.50134 9.07277,-8.50168 13.06461,-19.84354 14.79911,-42.04816 0.41333,-5.29138 0.91681,-10.17168 1.11883,-10.84512 0.40674,-1.35586 4.09631,-1.73736 4.86433,-0.50297 0.24688,0.39679 0.7394,4.88342 1.09449,9.97029 0.71582,10.25456 2.74084,21.96643 4.8519,28.06139 3.84196,11.09232 8.22577,15.44879 28.6062,28.42776 20.23186,12.88435 25.72905,16.84259 32.85363,23.65617 5.5762,5.33277 11.06053,12.30399 10.28541,13.07394 -0.83925,0.83364 -10.44926,4.77767 -17.6548,7.24566 -19.86331,6.80347 -35.01282,9.23545 -59.34601,9.52697 -9.68508,0.11602 -18.87709,0.0782 -20.42671,-0.084 z M 247.63359,235.96 c 0,-1.7766 -5.93905,-12.80079 -9.24899,-17.16815 -2.03622,-2.68673 -14.98861,-16.2196 -28.78308,-30.07305 -26.9633,-27.07858 -30.02763,-30.78306 -36.2407,-43.81145 -3.47713,-7.29132 -7.05663,-17.58037 -7.77765,-22.35635 l -0.46791,-3.09943 82.98612,0.16913 82.98611,0.16914 -0.21908,2.2797 c -0.35915,3.73702 -5.42377,18.09903 -8.60367,24.39784 -7.14126,14.14558 -10.21767,17.8364 -37.373,44.83681 -23.32251,23.18947 -28.32391,29.03994 -32.90717,38.49372 -2.9756,6.13767 -4.35098,8.08557 -4.35098,6.16209 z"
       id="path1" />
  </g>
</svg>
